<?xml version="1.0" encoding="UTF-8" standalone="no"?>
<!DOCTYPE svg PUBLIC "-//W3C//DTD SVG 1.1//EN" "http://www.w3.org/Graphics/SVG/1.1/DTD/svg11.dtd">
<svg width="100%" height="100%" viewBox="0 0 1618 1600" version="1.1" xmlns="http://www.w3.org/2000/svg" xmlns:xlink="http://www.w3.org/1999/xlink" xml:space="preserve" xmlns:serif="http://www.serif.com/" style="fill-rule:evenodd;clip-rule:evenodd;stroke-linejoin:round;stroke-miterlimit:2;">
    <g id="Artboard1" transform="matrix(0.904885,0,0,0.946527,-1033.81,-223.683)">
        <rect x="1142.47" y="236.319" width="1787.97" height="1690.39" style="fill:none;"/>
        <clipPath id="_clip1">
            <rect x="1142.47" y="236.319" width="1787.97" height="1690.39"/>
        </clipPath>
        <g clip-path="url(#_clip1)">
            <g transform="matrix(1.10255,0,0,1.05404,-238.019,-30.3781)">
                <g id="logo.svg" transform="matrix(2.00465,0,0,2.00465,2053.95,1054.88)">
                    <g transform="matrix(1,0,0,1,-400,-400)">
                        <path d="M682.171,116.256C607.297,41.331 507.737,0.046 401.663,0C183.081,0 5.2,177.825 5.112,396.397C5.087,466.265 23.342,534.466 58.041,594.583L1.783,800L211.999,744.878C269.918,776.465 335.13,793.11 401.493,793.136L401.663,793.136C620.21,793.136 798.119,615.28 798.211,396.718C798.248,290.788 757.035,191.187 682.171,116.256ZM401.663,726.183L401.535,726.183C342.382,726.152 284.376,710.271 233.78,680.248L221.739,673.111L96.992,705.817L130.298,584.235L122.453,571.77C89.457,519.306 72.038,458.677 72.063,396.423C72.136,214.752 219.984,66.956 401.788,66.956C489.827,66.992 572.574,101.309 634.806,163.584C697.035,225.86 731.281,308.646 731.254,396.69C731.177,578.366 583.324,726.183 401.663,726.183Z" style="fill:rgb(224,224,224);fill-rule:nonzero;"/>
                        <path d="M19.987,777.207L73.675,581.174C40.553,523.802 23.134,458.711 23.155,392.048C23.242,183.465 193,13.768 401.579,13.768C502.813,13.813 597.827,53.211 669.264,124.715C740.717,196.219 780.043,291.264 780.002,392.344C779.915,600.933 610.147,770.645 401.594,770.645C401.579,770.645 401.605,770.645 401.594,770.645L401.426,770.645C338.095,770.625 275.866,754.727 220.597,724.605L19.987,777.207Z" style="fill:url(#_Linear2);fill-rule:nonzero;"/>
                        <path d="M678.932,114.997C604.917,40.931 506.5,0.121 401.645,0.074C185.571,0.074 9.732,175.858 9.645,391.921C9.619,460.987 27.665,528.405 61.966,587.832L6.354,790.891L214.158,736.401C271.412,767.625 335.875,784.079 401.477,784.105L401.645,784.105C617.683,784.105 793.548,608.291 793.64,392.237C793.676,287.525 752.936,189.067 678.932,114.997ZM401.645,717.922L401.518,717.922C343.044,717.892 285.703,702.193 235.688,672.515L223.785,665.459L100.47,697.79L133.393,577.603L125.638,565.282C93.021,513.42 75.802,453.487 75.828,391.947C75.899,212.363 222.05,66.263 401.768,66.263C488.798,66.299 570.592,100.221 632.112,161.782C693.626,223.343 727.478,305.178 727.452,392.213C727.375,571.802 581.219,717.922 401.645,717.922Z" style="fill:white;fill-rule:nonzero;"/>
                    </g>
                </g>
                <g id="nodedotjs.svg" transform="matrix(34.9457,0,0,34.9457,2064.31,1051.33)">
                    <g transform="matrix(1,0,0,1,-12,-12)">
                        <clipPath id="_clip3">
                            <rect x="0" y="0" width="24" height="24"/>
                        </clipPath>
                        <g clip-path="url(#_clip3)">
                            <path d="M11.998,24C11.677,24 11.357,23.916 11.076,23.753L8.14,22.016C7.702,21.771 7.916,21.684 8.06,21.633C8.645,21.43 8.763,21.383 9.388,21.029C9.453,20.992 9.539,21.006 9.606,21.046L11.862,22.385C11.944,22.43 12.059,22.43 12.134,22.385L20.929,17.309C21.011,17.262 21.063,17.168 21.063,17.071L21.063,6.921C21.063,6.822 21.01,6.729 20.926,6.679L12.135,1.607C12.054,1.56 11.946,1.56 11.864,1.607L3.075,6.68C2.99,6.729 2.936,6.825 2.936,6.921L2.936,17.071C2.936,17.168 2.99,17.26 3.075,17.306L5.484,18.698C6.791,19.352 7.592,18.582 7.592,17.808L7.592,7.787C7.592,7.645 7.706,7.534 7.848,7.534L8.963,7.534C9.102,7.534 9.218,7.646 9.218,7.787L9.218,17.808C9.218,19.553 8.268,20.553 6.614,20.553C6.106,20.553 5.705,20.553 4.588,20.002L2.28,18.675C1.71,18.346 1.358,17.73 1.358,17.071L1.358,6.921C1.358,6.262 1.711,5.646 2.28,5.318L11.075,0.236C11.632,-0.079 12.371,-0.079 12.923,0.236L21.717,5.318C22.287,5.647 22.641,6.262 22.641,6.921L22.641,17.071C22.641,17.73 22.287,18.344 21.717,18.675L12.923,23.753C12.643,23.916 12.324,24 11.998,24ZM19.099,13.993C19.099,12.093 17.815,11.587 15.112,11.23C12.381,10.869 12.103,10.682 12.103,10.043C12.103,9.515 12.338,8.81 14.361,8.81C16.168,8.81 16.834,9.199 17.108,10.417C17.132,10.532 17.237,10.616 17.355,10.616L18.496,10.616C18.567,10.616 18.634,10.585 18.682,10.535C18.73,10.481 18.756,10.412 18.749,10.339C18.572,8.241 17.178,7.263 14.361,7.263C11.853,7.263 10.357,8.321 10.357,10.096C10.357,12.021 11.845,12.553 14.252,12.791C17.132,13.073 17.355,13.494 17.355,14.06C17.355,15.043 16.566,15.462 14.713,15.462C12.386,15.462 11.874,14.878 11.702,13.72C11.682,13.596 11.576,13.505 11.449,13.505L10.312,13.505C10.171,13.505 10.058,13.617 10.058,13.758C10.058,15.24 10.864,17.006 14.713,17.006C17.501,17.007 19.099,15.91 19.099,13.993Z" style="fill:white;fill-rule:nonzero;stroke:white;stroke-width:0.48px;"/>
                        </g>
                    </g>
                </g>
            </g>
        </g>
    </g>
    <defs>
        <linearGradient id="_Linear2" x1="0" y1="0" x2="1" y2="0" gradientUnits="userSpaceOnUse" gradientTransform="matrix(4.67471e-14,-763.438,763.438,4.67471e-14,399.995,777.207)"><stop offset="0" style="stop-color:rgb(32,176,56);stop-opacity:1"/><stop offset="1" style="stop-color:rgb(96,214,106);stop-opacity:1"/></linearGradient>
    </defs>
</svg>
